<svg width="24" height="24" viewBox="0 0 24 24" fill="none" xmlns="http://www.w3.org/2000/svg">
<g clip-path="url(#clip0_500_633)">
<path d="M20 5C20.5303 5.00006 21.0391 5.21096 21.4141 5.58594C21.7891 5.961 22 6.46963 22 7V17C22 17.5304 21.7891 18.039 21.4141 18.4141C21.0391 18.789 20.5303 18.9999 20 19H9C8.73489 19 8.48046 18.8945 8.29297 18.707L3.29297 13.707C3.27998 13.694 3.26714 13.6807 3.25488 13.667C2.8962 13.266 2.67792 12.7612 2.62891 12.2295L2.61816 12C2.61816 11.3851 2.84492 10.7914 3.25488 10.333C3.26714 10.3193 3.27998 10.306 3.29297 10.293L8.29297 5.29297C8.48046 5.10554 8.73489 5.00003 9 5H20ZM4.73926 11.6738C4.66122 11.7645 4.61816 11.8802 4.61816 12L4.62695 12.0908C4.64292 12.1771 4.68149 12.2579 4.73926 12.3252L9.41406 17H20V7H9.41406L4.73926 11.6738ZM15.293 9.29297C15.6835 8.90244 16.3165 8.90244 16.707 9.29297C17.0976 9.68349 17.0976 10.3165 16.707 10.707L15.4141 12L16.707 13.293C17.0976 13.6835 17.0976 14.3165 16.707 14.707C16.3409 15.0731 15.7619 15.0957 15.3691 14.7754L15.293 14.707L14 13.4141L12.707 14.707C12.3165 15.0976 11.6835 15.0976 11.293 14.707C10.9024 14.3165 10.9024 13.6835 11.293 13.293L12.5859 12L11.293 10.707C10.9024 10.3165 10.9024 9.68349 11.293 9.29297C11.6835 8.90244 12.3165 8.90244 12.707 9.29297L14 10.5859L15.293 9.29297Z" fill="#19191F"/>
</g>
<defs>
<clipPath id="clip0_500_633">
<rect width="24" height="24" fill="white"/>
</clipPath>
</defs>
</svg>
