<svg width="24" height="24" viewBox="0 0 24 24" fill="none" xmlns="http://www.w3.org/2000/svg">
    <g clip-path="url(#clip0_494_340)">
        <path d="M16.5 3.79395C18.2553 3.79395 19.9798 4.25615 21.5 5.13379C21.5098 5.13943 21.5188 5.14643 21.5283 5.15234C21.5431 5.1616 21.558 5.17067 21.5723 5.18066C21.5878 5.19149 21.6024 5.20328 21.6172 5.21484C21.6256 5.22145 21.6344 5.2275 21.6426 5.23438C21.6609 5.24971 21.6783 5.26579 21.6953 5.28223C21.7009 5.28768 21.7064 5.29325 21.7119 5.29883C21.7501 5.33759 21.7845 5.37911 21.8154 5.42285C21.823 5.43353 21.8307 5.44409 21.8379 5.45508C21.8487 5.47165 21.8584 5.48874 21.8682 5.50586C21.8757 5.51902 21.8827 5.53238 21.8896 5.5459C21.894 5.55434 21.8983 5.56273 21.9023 5.57129C21.9263 5.62155 21.9456 5.67406 21.9609 5.72852C21.9645 5.74115 21.9676 5.75384 21.9707 5.7666C21.9743 5.78154 21.9785 5.79633 21.9814 5.81152C21.9849 5.8293 21.9868 5.84728 21.9893 5.86523C21.9914 5.88079 21.9937 5.89633 21.9951 5.91211C21.9971 5.93452 21.9985 5.95694 21.999 5.97949C21.9992 5.98632 22 5.99314 22 6V19.0273C21.998 19.1053 21.9846 19.1829 21.9639 19.2598C21.9605 19.2724 21.9589 19.2854 21.9551 19.2979L21.9492 19.3154C21.9469 19.3225 21.9429 19.3289 21.9404 19.3359C21.9327 19.3577 21.9252 19.3794 21.916 19.4004C21.9089 19.4167 21.8997 19.4321 21.8916 19.4482C21.8857 19.46 21.8804 19.4719 21.874 19.4834C21.8711 19.4887 21.8693 19.4947 21.8662 19.5C21.8606 19.5097 21.8536 19.5188 21.8477 19.5283C21.8383 19.5433 21.8285 19.5578 21.8184 19.5723C21.7669 19.646 21.707 19.7101 21.6406 19.7656C21.6369 19.7687 21.6336 19.7723 21.6299 19.7754C21.6125 19.7895 21.5944 19.8026 21.5762 19.8154C21.5655 19.823 21.5549 19.8307 21.5439 19.8379C21.5251 19.8501 21.5058 19.8612 21.4863 19.8721C21.4798 19.8757 21.4734 19.8793 21.4668 19.8828C21.4496 19.8919 21.4327 19.9012 21.415 19.9092C21.3965 19.9177 21.3775 19.9253 21.3584 19.9326C21.3517 19.9352 21.3447 19.937 21.3379 19.9395C21.316 19.9473 21.294 19.9546 21.2715 19.9609C21.2585 19.9646 21.2455 19.9676 21.2324 19.9707C21.2159 19.9746 21.1994 19.9783 21.1826 19.9814C21.1664 19.9845 21.1502 19.987 21.1338 19.9893C21.1182 19.9913 21.1027 19.9938 21.0869 19.9951C21.0645 19.9971 21.0421 19.9986 21.0195 19.999C21.013 19.9991 21.0065 20 21 20C20.9971 20 20.9941 19.999 20.9912 19.999C20.9664 19.9988 20.9418 19.9972 20.917 19.9951C20.9085 19.9944 20.9 19.995 20.8916 19.9941C20.8361 19.9881 20.7812 19.9765 20.7266 19.9609C20.7144 19.9575 20.7024 19.9541 20.6904 19.9502C20.68 19.9468 20.6696 19.9432 20.6592 19.9395C20.6388 19.932 20.6184 19.9247 20.5986 19.916C20.5823 19.9088 20.5669 19.8997 20.5508 19.8916C20.5391 19.8857 20.5271 19.8804 20.5156 19.874C20.5106 19.8712 20.505 19.8691 20.5 19.8662C19.2839 19.1641 17.9042 18.7939 16.5 18.7939C15.0958 18.7939 13.7161 19.1641 12.5 19.8662C12.496 19.8685 12.4913 19.8698 12.4873 19.8721C12.42 19.9097 12.3482 19.9395 12.2725 19.9609C12.2588 19.9648 12.2452 19.9684 12.2314 19.9717C12.2077 19.9773 12.1836 19.9814 12.1592 19.9854C12.1445 19.9877 12.13 19.9905 12.1152 19.9922C12.0774 19.9965 12.039 20 12 20C11.9606 20 11.922 19.9966 11.8838 19.9922C11.869 19.9905 11.8545 19.9877 11.8398 19.9854C11.8155 19.9814 11.7913 19.9773 11.7676 19.9717C11.7538 19.9684 11.7402 19.9648 11.7266 19.9609C11.6509 19.9394 11.5789 19.9098 11.5117 19.8721C11.508 19.87 11.5037 19.8684 11.5 19.8662C10.2839 19.1641 8.90425 18.7939 7.5 18.7939C6.09575 18.7939 4.71612 19.1641 3.5 19.8662C3.49474 19.8692 3.48869 19.8711 3.4834 19.874C3.47193 19.8804 3.45998 19.8857 3.44824 19.8916C3.43215 19.8997 3.41673 19.9089 3.40039 19.916C3.37938 19.9252 3.35767 19.9327 3.33594 19.9404C3.32679 19.9437 3.31779 19.9472 3.30859 19.9502C3.29665 19.9541 3.2846 19.9575 3.27246 19.9609C3.21783 19.9765 3.1629 19.9882 3.10742 19.9941C3.09903 19.995 3.09049 19.9944 3.08203 19.9951C3.05723 19.9971 3.03258 19.9989 3.00781 19.999C3.00521 19.999 3.00261 20 3 20C2.99314 20 2.98632 19.9992 2.97949 19.999C2.95693 19.9985 2.93452 19.9971 2.91211 19.9951C2.89633 19.9937 2.88079 19.9914 2.86523 19.9893C2.84886 19.987 2.83263 19.9845 2.81641 19.9814C2.79961 19.9783 2.78309 19.9747 2.7666 19.9707C2.75353 19.9676 2.74047 19.9646 2.72754 19.9609C2.70502 19.9546 2.68297 19.9473 2.66113 19.9395C2.65435 19.937 2.64736 19.9352 2.64062 19.9326C2.62149 19.9252 2.60253 19.9177 2.58398 19.9092C2.56637 19.9011 2.54938 19.8919 2.53223 19.8828C2.52565 19.8793 2.51918 19.8757 2.5127 19.8721C2.4932 19.8612 2.47387 19.8501 2.45508 19.8379C2.44409 19.8307 2.43353 19.823 2.42285 19.8154C2.40464 19.8026 2.38654 19.7895 2.36914 19.7754C2.36539 19.7723 2.3621 19.7687 2.3584 19.7656C2.29213 19.7101 2.232 19.6459 2.18066 19.5723C2.17067 19.558 2.1616 19.5431 2.15234 19.5283C2.14644 19.5188 2.13942 19.5097 2.13379 19.5C2.13065 19.4946 2.12802 19.4889 2.125 19.4834C2.11866 19.4719 2.11332 19.46 2.10742 19.4482C2.09933 19.4322 2.09015 19.4167 2.08301 19.4004C2.07383 19.3794 2.06634 19.3577 2.05859 19.3359C2.05612 19.329 2.05309 19.3224 2.05078 19.3154L2.04492 19.2979C2.04103 19.2854 2.03856 19.2725 2.03516 19.2598C2.01445 19.183 2.00203 19.1052 2 19.0273V5.97949C2.00049 5.95696 2.0019 5.9345 2.00391 5.91211C2.00528 5.89635 2.00767 5.88078 2.00977 5.86523C2.01224 5.84724 2.01512 5.82934 2.01855 5.81152C2.02144 5.79641 2.02476 5.78147 2.02832 5.7666C2.03139 5.75385 2.03452 5.74114 2.03809 5.72852C2.05341 5.6741 2.0728 5.62151 2.09668 5.57129C2.10073 5.56274 2.10508 5.55434 2.10938 5.5459C2.11628 5.53238 2.12337 5.51901 2.13086 5.50586C2.14057 5.48875 2.15039 5.47164 2.16113 5.45508C2.16828 5.4441 2.17603 5.43353 2.18359 5.42285C2.23228 5.35391 2.28984 5.29023 2.35645 5.23438C2.36461 5.2275 2.37345 5.22146 2.38184 5.21484C2.39657 5.20328 2.41124 5.19149 2.42676 5.18066C2.44102 5.17067 2.45591 5.1616 2.4707 5.15234C2.48044 5.14627 2.48999 5.13957 2.5 5.13379C4.02016 4.25615 5.74468 3.79395 7.5 3.79395C9.06564 3.79395 10.6065 4.16206 12 4.86426C13.3935 4.16206 14.9344 3.79395 16.5 3.79395ZM7.5 5.79395C6.28477 5.79395 5.08832 6.07191 4 6.60156V17.4268C5.11535 17.01 6.30046 16.7939 7.5 16.7939C8.69968 16.7939 9.8846 17.0108 11 17.4277V6.60156C9.91168 6.07191 8.71523 5.79395 7.5 5.79395ZM16.5 5.79395C15.2848 5.79395 14.0883 6.07191 13 6.60156V17.4277C14.1154 17.0108 15.3003 16.7939 16.5 16.7939C17.6995 16.7939 18.8847 17.01 20 17.4268V6.60156C18.9117 6.07191 17.7152 5.79395 16.5 5.79395Z"
              fill="currentColor"
        />
    </g>
    <defs>
        <clipPath id="clip0_494_340">
            <rect width="24" height="24" fill="white" />
        </clipPath>
    </defs>
</svg>
