<svg width="24" height="24" viewBox="0 0 24 24" fill="none" xmlns="http://www.w3.org/2000/svg">
<g clip-path="url(#clip0_494_347)">
<path d="M16 6C16 5.73478 15.8946 5.48051 15.707 5.29297C15.5429 5.12883 15.3276 5.02757 15.0986 5.00488L15 5H9C8.73478 5 8.4805 5.10543 8.29297 5.29297C8.10543 5.4805 8 5.73478 8 6V18.2334L11.4854 16.1426L11.6074 16.0801C11.8997 15.9553 12.2375 15.9763 12.5146 16.1426L16 18.2334V6ZM18 20C18 20.3601 17.8064 20.6926 17.4932 20.8701C17.1797 21.0476 16.7943 21.0428 16.4854 20.8574L12 18.166L7.51465 20.8574C7.20572 21.0428 6.82034 21.0476 6.50684 20.8701C6.19356 20.6926 6 20.3601 6 20V6C6 5.20435 6.3163 4.44152 6.87891 3.87891C7.44152 3.3163 8.20435 3 9 3H15C15.7956 3 16.5585 3.3163 17.1211 3.87891C17.6837 4.44151 18 5.20435 18 6V20Z" fill="#19191F"/>
</g>
<defs>
<clipPath id="clip0_494_347">
<rect width="24" height="24" fill="white"/>
</clipPath>
</defs>
</svg>
