<svg width="24" height="24" viewBox="0 0 24 24" fill="none" xmlns="http://www.w3.org/2000/svg">
<g clip-path="url(#clip0_515_5339)">
<path d="M15 3C15.7956 3 16.5585 3.3163 17.1211 3.87891C17.6837 4.44151 18 5.20435 18 6V20C18 20.3601 17.8064 20.6926 17.4932 20.8701C17.1797 21.0476 16.7943 21.0428 16.4854 20.8574L12 18.166L7.51465 20.8574C7.20572 21.0428 6.82034 21.0476 6.50684 20.8701C6.19356 20.6926 6 20.3601 6 20V6C6 5.20435 6.3163 4.44152 6.87891 3.87891C7.44152 3.3163 8.20435 3 9 3H15Z" fill="#19191F"/>
</g>
<defs>
<clipPath id="clip0_515_5339">
<rect width="24" height="24" fill="white"/>
</clipPath>
</defs>
</svg>
