<svg width="24" height="24" viewBox="0 0 24 24" fill="none" xmlns="http://www.w3.org/2000/svg">
<g clip-path="url(#clip0_494_390)">
<path d="M12 2C17.5228 2 22 6.47715 22 12C22 17.5228 17.5228 22 12 22C6.47715 22 2 17.5228 2 12C2 6.47715 6.47715 2 12 2ZM12 4C7.58172 4 4 7.58172 4 12C4 16.4183 7.58172 20 12 20C16.4183 20 20 16.4183 20 12C20 7.58172 16.4183 4 12 4ZM12 6C12.5523 6 13 6.44772 13 7V11.5859L15.707 14.293C16.0976 14.6835 16.0976 15.3165 15.707 15.707C15.3165 16.0976 14.6835 16.0976 14.293 15.707L11.293 12.707C11.1054 12.5195 11 12.2652 11 12V7C11 6.44772 11.4477 6 12 6Z" fill="currentColor"/>
</g>
<defs>
<clipPath id="clip0_494_390">
<rect width="24" height="24" fill="white"/>
</clipPath>
</defs>
</svg>
