<svg width="24" height="24" viewBox="0 0 24 24" fill="none" xmlns="http://www.w3.org/2000/svg">
<g clip-path="url(#clip0_1109_14149)">
<path d="M12 16C12.5523 16 13 16.4477 13 17V17.0098C13 17.5621 12.5523 18.0098 12 18.0098C11.4477 18.0098 11 17.5621 11 17.0098V17C11 16.4477 11.4477 16 12 16Z" fill="#7E819A"/>
<path d="M12.0811 5.9707C12.6381 5.97225 13.1876 6.10278 13.6855 6.35254C14.1836 6.60242 14.6169 6.96538 14.9512 7.41113C15.2854 7.85684 15.5119 8.37389 15.6123 8.92188C15.7127 9.46993 15.6848 10.034 15.5303 10.5693C15.3757 11.1046 15.0987 11.5966 14.7217 12.0068C14.3447 12.417 13.8778 12.7346 13.3574 12.9336C13.3491 12.9368 13.3404 12.9394 13.332 12.9424C13.2299 12.9783 13.1421 13.0467 13.082 13.1367C13.0219 13.2268 12.992 13.3342 12.998 13.4424C13.0293 13.9938 12.608 14.4668 12.0566 14.498C11.5052 14.5293 11.0332 14.1071 11.002 13.5557C10.9713 13.0147 11.1165 12.4782 11.417 12.0273C11.7125 11.5841 12.1424 11.2475 12.6426 11.0654L12.8115 10.9893C12.9754 10.9038 13.1233 10.7901 13.249 10.6533C13.4165 10.4711 13.5397 10.2525 13.6084 10.0146C13.6771 9.77672 13.6901 9.52581 13.6455 9.28223C13.6009 9.03864 13.5001 8.80846 13.3516 8.61035C13.203 8.41234 13.0103 8.25166 12.7891 8.14062C12.5678 8.02963 12.3237 7.97145 12.0762 7.9707C11.8285 7.97002 11.5833 8.02689 11.3613 8.13672C11.1396 8.24651 10.9465 8.40641 10.7969 8.60352C10.4631 9.0435 9.83549 9.12971 9.39551 8.7959C8.95554 8.46208 8.86931 7.83451 9.20312 7.39453C9.53991 6.95065 9.97522 6.59085 10.4746 6.34375C10.9739 6.09668 11.524 5.9692 12.0811 5.9707Z" fill="#7E819A"/>
<path fill-rule="evenodd" clip-rule="evenodd" d="M12.4922 2.01172C13.6373 2.06814 14.7657 2.32107 15.8271 2.76074C17.0404 3.26329 18.1427 4.00015 19.0713 4.92871C19.9998 5.85727 20.7367 6.95964 21.2393 8.17285C21.7418 9.38611 22 10.6868 22 12L21.9883 12.4922C21.9319 13.6373 21.6789 14.7657 21.2393 15.8271C20.7367 17.0404 19.9998 18.1427 19.0713 19.0713C18.1427 19.9998 17.0404 20.7367 15.8271 21.2393C14.7657 21.6789 13.6373 21.9319 12.4922 21.9883L12 22C10.6868 22 9.38611 21.7418 8.17285 21.2393C6.95964 20.7367 5.85727 19.9998 4.92871 19.0713C4.00015 18.1427 3.26329 17.0404 2.76074 15.8271C2.32107 14.7657 2.06814 13.6373 2.01172 12.4922L2 12C2 10.6868 2.2582 9.38611 2.76074 8.17285C3.26329 6.95964 4.00015 5.85727 4.92871 4.92871C5.85727 4.00015 6.95964 3.26329 8.17285 2.76074C9.38611 2.2582 10.6868 2 12 2L12.4922 2.01172ZM12 4C10.9494 4 9.90908 4.20734 8.93848 4.60938C7.96795 5.01141 7.08559 5.59995 6.34277 6.34277C5.59995 7.08559 5.01141 7.96795 4.60938 8.93848C4.20734 9.90908 4 10.9494 4 12L4.00977 12.3936C4.05489 13.3097 4.25762 14.2123 4.60938 15.0615C5.01141 16.0321 5.59995 16.9144 6.34277 17.6572C7.08559 18.4 7.96795 18.9886 8.93848 19.3906C9.90908 19.7927 10.9494 20 12 20L12.3936 19.9902C13.3097 19.9451 14.2123 19.7424 15.0615 19.3906C16.0321 18.9886 16.9144 18.4 17.6572 17.6572C18.4 16.9144 18.9886 16.0321 19.3906 15.0615C19.7927 14.0909 20 13.0506 20 12L19.9902 11.6064C19.9451 10.6903 19.7424 9.7877 19.3906 8.93848C18.9886 7.96795 18.4 7.08559 17.6572 6.34277C16.9144 5.59995 16.0321 5.01141 15.0615 4.60938C14.2123 4.25762 13.3097 4.05489 12.3936 4.00977L12 4Z" fill="#7E819A"/>
</g>
<defs>
<clipPath id="clip0_1109_14149">
<rect width="24" height="24" fill="white"/>
</clipPath>
</defs>
</svg>
