<svg width="24" height="24" viewBox="0 0 24 24" fill="none" xmlns="http://www.w3.org/2000/svg">
<g clip-path="url(#clip0_494_362)">
<path d="M11.3691 2.22462C11.7619 1.90427 12.3409 1.92686 12.707 2.29298L21.707 11.293C21.9929 11.579 22.0786 12.0092 21.9238 12.3828C21.769 12.7563 21.4043 13 21 13H20V19C19.9999 19.7956 19.6836 20.5585 19.1211 21.1211C18.5585 21.6836 17.7956 22 17 22H6.99996C6.20437 22 5.44146 21.6836 4.87886 21.1211C4.3163 20.5585 4.00001 19.7956 3.99995 19V13H2.99995C2.59561 13 2.23098 12.7563 2.07612 12.3828C1.92135 12.0092 2.007 11.579 2.29291 11.293L11.2929 2.29298L11.3691 2.22462ZM5.34956 11.0635C5.35053 11.0638 5.35153 11.0641 5.35249 11.0645C5.44073 11.0977 5.52232 11.1437 5.59664 11.1992C5.60427 11.2049 5.61163 11.2109 5.6191 11.2168C5.65264 11.2434 5.68495 11.2712 5.7148 11.3018C5.72125 11.3084 5.72709 11.3155 5.73335 11.3223C5.76037 11.3515 5.78612 11.3818 5.80953 11.4141C5.81282 11.4186 5.81608 11.4232 5.81929 11.4277C5.84321 11.4619 5.86418 11.498 5.88375 11.5352C5.89122 11.5493 5.89843 11.5636 5.90523 11.5781C5.91847 11.6065 5.93079 11.6353 5.94136 11.665C5.94519 11.6758 5.94961 11.6864 5.95308 11.6973C5.96673 11.7403 5.97657 11.7847 5.98433 11.8301C5.98566 11.8378 5.98611 11.8457 5.98726 11.8535C5.99429 11.9014 5.99996 11.9502 5.99996 12V19L6.00484 19.0986C6.02758 19.3276 6.12884 19.543 6.29293 19.707C6.48045 19.8945 6.73481 20 6.99996 20H7.99996V15C7.99996 14.2044 8.31633 13.4415 8.87887 12.8789C9.44148 12.3163 10.2043 12 11 12H13C13.7956 12 14.5585 12.3163 15.1211 12.8789C15.6836 13.4415 16 14.2044 16 15V20H17C17.2651 20 17.5195 19.8945 17.707 19.707C17.8945 19.5196 17.9999 19.2651 18 19V12C18 11.9503 18.0047 11.9013 18.0117 11.8535C18.0129 11.8457 18.0133 11.8378 18.0146 11.8301C18.0224 11.7845 18.0321 11.7396 18.0459 11.6963C18.0477 11.6906 18.0508 11.6853 18.0527 11.6797C18.0659 11.6407 18.0819 11.6031 18.0996 11.5664C18.1037 11.558 18.107 11.5493 18.1113 11.541C18.1317 11.5017 18.1545 11.4638 18.1797 11.4277C18.1829 11.4232 18.1862 11.4186 18.1894 11.4141C18.2128 11.3818 18.2386 11.3515 18.2656 11.3223C18.2697 11.3179 18.2732 11.3129 18.2773 11.3086L18.293 11.293C18.3189 11.267 18.3464 11.2427 18.375 11.2197C18.3793 11.2163 18.3833 11.2124 18.3877 11.209L18.4404 11.1709C18.5034 11.1283 18.5715 11.0929 18.6435 11.0654C18.6455 11.0647 18.6475 11.0642 18.6494 11.0635L12 4.41407L5.34956 11.0635ZM11 14C10.7348 14 10.4805 14.1054 10.2929 14.293C10.1055 14.4805 9.99997 14.7348 9.99997 15V20H14V15C14 14.7349 13.8945 14.4805 13.707 14.293C13.5195 14.1054 13.2652 14 13 14H11Z" fill="#19191F"/>
</g>
<defs>
<clipPath id="clip0_494_362">
<rect width="24" height="24" fill="white"/>
</clipPath>
</defs>
</svg>
