<svg width="24" height="24" viewBox="0 0 24 24" fill="none" xmlns="http://www.w3.org/2000/svg">
<g clip-path="url(#clip0_494_395)">
<path d="M17 3C19.2091 3 21 4.79086 21 7V17C21 19.2091 19.2091 21 17 21H7C4.79086 21 3 19.2091 3 17V7C3 4.79086 4.79086 3 7 3H17ZM9.5 11.3301C9.28259 11.3301 9.00309 11.4227 8.69336 11.7207L5 15.4141V17C5 18.1046 5.89543 19 7 19H17C18.1046 19 19 18.1046 19 17V15.4141L17.3066 13.7207L17.1924 13.6182C16.9283 13.4007 16.6903 13.3301 16.5 13.3301C16.2826 13.3301 16.0031 13.4227 15.6934 13.7207L15.4141 14L16.707 15.293C17.0975 15.6835 17.0975 16.3165 16.707 16.707C16.3165 17.0975 15.6835 17.0975 15.293 16.707L10.3066 11.7207L10.1924 11.6182C9.96589 11.4316 9.75844 11.3536 9.58398 11.335L9.5 11.3301ZM7 5C5.89543 5 5 5.89543 5 7V12.5859L7.30664 10.2793C7.909 9.69971 8.66423 9.33008 9.5 9.33008C10.2315 9.33008 10.9014 9.61305 11.4609 10.0723L11.6934 10.2793L14 12.5859L14.3066 12.2793C14.909 11.6997 15.6642 11.3301 16.5 11.3301C17.2315 11.3301 17.9014 11.6131 18.4609 12.0723L18.6934 12.2793L19 12.5859V7C19 5.89543 18.1046 5 17 5H7ZM15.0098 7C15.5621 7 16.0098 7.44772 16.0098 8C16.0098 8.55228 15.5621 9 15.0098 9H15C14.4477 9 14 8.55228 14 8C14 7.44772 14.4477 7 15 7H15.0098Z" fill="#19191F"/>
</g>
<defs>
<clipPath id="clip0_494_395">
<rect width="24" height="24" fill="white"/>
</clipPath>
</defs>
</svg>
