<svg width="24" height="24" viewBox="0 0 24 24" fill="none" xmlns="http://www.w3.org/2000/svg">
<path d="M20.1818 9.76622C20.1818 7.56152 18.3502 5.77422 16.0909 5.77422C14.7081 5.77422 13.485 6.44329 12.7431 7.47134C12.5728 7.70709 12.2956 7.84732 12 7.84732C11.7044 7.84732 11.4272 7.70709 11.2569 7.47134C10.515 6.44329 9.29193 5.77422 7.90909 5.77422C5.64975 5.77422 3.81818 7.56151 3.81818 9.76622C3.81818 11.865 5.104 13.9802 6.90767 15.7577C8.5862 17.4118 10.579 18.6387 12 19.1701C13.421 18.6387 15.4138 17.4118 17.0923 15.7577C18.896 13.9802 20.1818 11.865 20.1818 9.76622ZM22 9.76622C22 12.5464 20.3311 15.088 18.3849 17.0061C16.4298 18.9328 14.0384 20.3867 12.2868 20.9547C12.1006 21.0151 11.8994 21.0151 11.7132 20.9547C9.96164 20.3867 7.57023 18.9328 5.61506 17.0061C3.66887 15.088 2 12.5464 2 9.76622C2 6.58164 4.64559 4 7.90909 4C9.49792 4 10.9389 4.61374 12 5.60789C13.0611 4.61374 14.5021 4 16.0909 4C19.3544 4 22 6.58164 22 9.76622Z" fill="#7E819A"/>
</svg>
