<svg width="205" height="32" viewBox="0 0 205 32" fill="none" xmlns="http://www.w3.org/2000/svg">
<path d="M40.9266 10.1818C40.7691 8.55593 39.3776 7.61189 37.3296 7.61189C35.1768 7.61189 33.8641 8.66084 33.8641 10.0769C33.8641 11.6766 35.5444 12.3322 37.1197 12.6993L38.9051 13.1713C41.7406 13.8269 44.471 15.3217 44.471 18.6259C44.471 21.9563 41.8456 24.2377 37.2772 24.2377C32.84 24.2377 30.0569 22.1137 29.8994 18.3636H33.2601C33.4176 20.3566 35.0979 21.3269 37.251 21.3269C39.5089 21.3269 41.0579 20.2255 41.0579 18.5997C41.0579 17.1049 39.6664 16.4755 37.6184 15.951L35.4656 15.4004C32.3413 14.5874 30.3984 13.014 30.3984 10.2867C30.3984 6.93006 33.3914 4.70105 37.3823 4.70105C41.4256 4.70105 44.156 6.98252 44.2086 10.1818H40.9266ZM53.7265 9.70979V12.2797H50.9172V19.6748C50.9172 21.0384 51.5998 21.3269 52.44 21.3269C52.8339 21.3269 53.4903 21.3007 53.9104 21.2745V24.0017C53.5165 24.0804 52.8601 24.1328 52.0199 24.1328C49.4994 24.1328 47.5565 22.9002 47.5827 20.2255V12.2797H45.535V9.70979H47.5827V6.30069H50.9172V9.70979H53.7265ZM61.9318 24.2377C57.6259 24.2377 55.0004 21.3795 55.0004 16.9213C55.0004 12.5157 57.6784 9.52623 61.7479 9.52623C65.2398 9.52623 68.2593 11.7028 68.2593 16.7115V17.7605H58.3086C58.348 20.1862 59.7788 21.6153 61.958 21.6153C63.4282 21.6153 64.4261 20.9861 64.8462 20.1468H68.128C67.5242 22.6118 65.2398 24.2377 61.9318 24.2377ZM58.3348 15.479H65.0561C65.0299 13.5385 63.7435 12.1224 61.8005 12.1224C59.7788 12.1224 58.4399 13.6565 58.3348 15.479ZM70.3209 29.2989V9.70979H73.6027V12.0437H73.8127C74.3378 11.021 75.3881 9.52623 77.9086 9.52623C81.1904 9.52623 83.7898 12.0961 83.7898 16.8427C83.7898 21.5368 81.2693 24.2116 77.9086 24.2116C75.4406 24.2116 74.3378 22.7429 73.8127 21.6941H73.6816V29.2989H70.3209ZM73.6027 16.8164C73.6027 19.5962 74.8105 21.458 76.9896 21.458C79.1951 21.458 80.3765 19.5175 80.3765 16.8164C80.3765 14.1678 79.2213 12.2535 76.9896 12.2535C74.8105 12.2535 73.6027 14.0629 73.6027 16.8164ZM86.0351 23.9493V4.96327H93.3078C97.4298 4.96327 99.4778 7.06117 99.4778 9.89335C99.4778 12.201 98.0074 13.486 96.1433 13.9318V14.1154C98.1649 14.2203 100.213 15.8986 100.213 18.7832C100.213 21.7464 98.0862 23.9493 93.7279 23.9493H86.0351ZM93.2027 21.091C95.697 21.091 96.7471 20.0157 96.7471 18.521C96.7471 16.8164 95.4082 15.5052 93.2814 15.5052H89.4482V21.091H93.2027ZM92.8877 13.0402C94.6991 13.0402 96.0645 11.9913 96.0645 10.3129C96.0645 8.8444 95.0144 7.79545 92.9664 7.79545H89.4482V13.0402H92.8877ZM108.523 24.2377C104.375 24.2377 101.697 21.3007 101.697 16.8951C101.697 12.4633 104.375 9.52623 108.523 9.52623C112.698 9.52623 115.349 12.4633 115.349 16.8951C115.349 21.3007 112.698 24.2377 108.523 24.2377ZM108.549 21.5629C110.834 21.5629 111.963 19.4912 111.963 16.8689C111.963 14.2727 110.834 12.1748 108.549 12.1748C106.213 12.1748 105.084 14.2727 105.084 16.8689C105.084 19.4912 106.213 21.5629 108.549 21.5629ZM123.633 24.2377C119.485 24.2377 116.807 21.3007 116.807 16.8951C116.807 12.4633 119.485 9.52623 123.633 9.52623C127.808 9.52623 130.46 12.4633 130.46 16.8951C130.46 21.3007 127.808 24.2377 123.633 24.2377ZM123.66 21.5629C125.944 21.5629 127.073 19.4912 127.073 16.8689C127.073 14.2727 125.944 12.1748 123.66 12.1748C121.323 12.1748 120.194 14.2727 120.194 16.8689C120.194 19.4912 121.323 21.5629 123.66 21.5629ZM132.521 23.9493V4.96327H135.882V15.4266H136.118L141.238 9.70979H145.15L139.636 15.8462L145.491 23.9493H141.501L137.116 17.8392L135.882 19.1503V23.9493H132.521ZM157.11 10.1818C156.952 8.55593 155.561 7.61189 153.513 7.61189C151.36 7.61189 150.047 8.66084 150.047 10.0769C150.047 11.6766 151.727 12.3322 153.303 12.6993L155.088 13.1713C157.924 13.8269 160.654 15.3217 160.654 18.6259C160.654 21.9563 158.029 24.2377 153.46 24.2377C149.023 24.2377 146.24 22.1137 146.083 18.3636H149.443C149.601 20.3566 151.281 21.3269 153.434 21.3269C155.692 21.3269 157.241 20.2255 157.241 18.5997C157.241 17.1049 155.85 16.4755 153.802 15.951L151.649 15.4004C148.524 14.5874 146.581 13.014 146.581 10.2867C146.581 6.93006 149.575 4.70105 153.565 4.70105C157.609 4.70105 160.339 6.98252 160.392 10.1818H157.11ZM169.91 9.70979V12.2797H167.1V19.6748C167.1 21.0384 167.783 21.3269 168.623 21.3269C169.017 21.3269 169.673 21.3007 170.093 21.2745V24.0017C169.7 24.0804 169.043 24.1328 168.203 24.1328C165.683 24.1328 163.74 22.9002 163.766 20.2255V12.2797H161.718V9.70979H163.766V6.30069H167.1V9.70979H169.91ZM178.115 24.2377C173.809 24.2377 171.184 21.3795 171.184 16.9213C171.184 12.5157 173.862 9.52623 177.931 9.52623C181.423 9.52623 184.442 11.7028 184.442 16.7115V17.7605H174.492C174.531 20.1862 175.962 21.6153 178.141 21.6153C179.611 21.6153 180.609 20.9861 181.029 20.1468H184.311C183.707 22.6118 181.423 24.2377 178.115 24.2377ZM174.518 15.479H181.239C181.213 13.5385 179.926 12.1224 177.984 12.1224C175.962 12.1224 174.623 13.6565 174.518 15.479ZM186.504 29.2989V9.70979H189.786V12.0437H189.996C190.521 11.021 191.571 9.52623 194.092 9.52623C197.374 9.52623 199.973 12.0961 199.973 16.8427C199.973 21.5368 197.452 24.2116 194.092 24.2116C191.624 24.2116 190.521 22.7429 189.996 21.6941H189.865V29.2989H186.504ZM189.786 16.8164C189.786 19.5962 190.994 21.458 193.173 21.458C195.378 21.458 196.56 19.5175 196.56 16.8164C196.56 14.1678 195.405 12.2535 193.173 12.2535C190.994 12.2535 189.786 14.0629 189.786 16.8164Z" fill="#4931D4"/>
<path d="M17.5191 4.70105C18.0475 4.70105 18.4764 5.18151 18.4764 5.77423V23.2139C18.4763 23.8065 18.0473 24.287 17.5191 24.287H1.25715C0.729055 24.2869 0.300972 23.8064 0.300781 23.2139V17.5792C0.300781 16.9866 0.728939 16.5062 1.25715 16.506H5.32288V11.6767C5.32288 11.0841 5.75107 10.6037 6.27924 10.6035H10.5843V5.77423C10.5843 5.18157 11.0124 4.70115 11.5407 4.70105H17.5191Z" fill="#4931D4"/>
<path d="M20.6228 4.70105C21.1511 4.70107 21.5792 5.18152 21.5792 5.77423V23.2139C21.579 23.7694 21.2029 24.2264 20.7206 24.2813C20.6885 24.285 20.6558 24.287 20.6228 24.287H4.36082C3.83261 24.287 3.40464 23.8065 3.40445 23.2139V17.5792C3.40445 16.9865 3.83249 16.506 4.36082 16.506H8.42655V11.6767C8.42655 11.084 8.85461 10.6035 9.38292 10.6035H13.687V5.77423C13.687 5.18151 14.116 4.70105 14.6443 4.70105H20.6228Z" fill="#BBEF80"/>
</svg>
