<svg width="210" height="30" viewBox="0 0 210 30" fill="none" xmlns="http://www.w3.org/2000/svg">
<path d="M13.616 6.68445C13.4215 4.70149 11.7033 3.55011 9.1745 3.55011C6.51627 3.55011 4.89543 4.82943 4.89543 6.55651C4.89543 8.50746 6.97023 9.30704 8.91529 9.75483L11.1198 10.3305C14.621 11.1301 17.9924 12.9531 17.9924 16.983C17.9924 21.0449 14.7507 23.8273 9.10977 23.8273C3.6309 23.8273 0.194478 21.2368 0 16.6632H4.14961C4.34409 19.0939 6.41889 20.2772 9.0774 20.2772C11.8654 20.2772 13.7781 18.934 13.7781 16.951C13.7781 15.128 12.0599 14.3604 9.53109 13.7207L6.87285 13.0491C3.0151 12.0576 0.616076 10.1386 0.616076 6.81237C0.616076 2.71855 4.31172 0 9.23952 0C14.232 0 17.6035 2.78252 17.6685 6.68445H13.616ZM29.4207 6.10875V9.2431H25.9519V18.2623C25.9519 19.9254 26.7948 20.2772 27.8322 20.2772C28.3186 20.2772 29.1291 20.2452 29.6478 20.2133V23.5394C29.1615 23.6355 28.3509 23.6993 27.3135 23.6993C24.2013 23.6993 21.8023 22.1961 21.8347 18.9339V9.2431H19.3062V6.10875H21.8347V1.95095H25.9519V6.10875H29.4207ZM39.5524 23.8273C34.2356 23.8273 30.9937 20.3413 30.9937 14.9041C30.9937 9.53092 34.3004 5.88488 39.3253 5.88488C43.637 5.88488 47.3653 8.53945 47.3653 14.6482V15.9276H35.0786C35.1272 18.886 36.8939 20.629 39.5848 20.629C41.4001 20.629 42.6322 19.8615 43.1509 18.838H47.2032C46.4576 21.8443 43.637 23.8273 39.5524 23.8273ZM35.1109 13.145H43.4101C43.3778 10.7783 41.7893 9.05118 39.3903 9.05118C36.8939 9.05118 35.2407 10.9222 35.1109 13.145ZM49.9109 30V6.10875H53.9631V8.95525H54.2224C54.8708 7.70791 56.1677 5.88488 59.2799 5.88488C63.3321 5.88488 66.5417 9.01919 66.5417 14.8081C66.5417 20.5332 63.4295 23.7954 59.2799 23.7954C56.2324 23.7954 54.8708 22.0042 54.2224 20.725H54.0605V30H49.9109ZM53.9631 14.7761C53.9631 18.1664 55.4545 20.4371 58.1451 20.4371C60.8684 20.4371 62.3271 18.0704 62.3271 14.7761C62.3271 11.5459 60.9007 9.21111 58.1451 9.21111C55.4545 9.21111 53.9631 11.4179 53.9631 14.7761ZM69.3142 23.4755V0.31981H78.2942C83.3839 0.31981 85.9126 2.87845 85.9126 6.33263C85.9126 9.14714 84.097 10.7143 81.7954 11.258V11.4819C84.2915 11.6098 86.8203 13.6567 86.8203 17.1749C86.8203 20.7889 84.1944 23.4755 78.8129 23.4755H69.3142ZM78.1645 19.9895C81.2443 19.9895 82.5409 18.6781 82.5409 16.8551C82.5409 14.7762 80.8877 13.177 78.2616 13.177H73.5285V19.9895H78.1645ZM77.7755 10.1706C80.0122 10.1706 81.698 8.89127 81.698 6.84436C81.698 5.05331 80.4014 3.77399 77.8726 3.77399H73.5285V10.1706H77.7755ZM97.0814 23.8273C91.9592 23.8273 88.6525 20.2452 88.6525 14.8721C88.6525 9.46698 91.9592 5.88488 97.0814 5.88488C102.236 5.88488 105.51 9.46698 105.51 14.8721C105.51 20.2452 102.236 23.8273 97.0814 23.8273ZM97.1138 20.5651C99.9344 20.5651 101.328 18.0384 101.328 14.8401C101.328 11.6738 99.9344 9.11515 97.1138 9.11515C94.2287 9.11515 92.8345 11.6738 92.8345 14.8401C92.8345 18.0384 94.2287 20.5651 97.1138 20.5651ZM115.739 23.8273C110.617 23.8273 107.31 20.2452 107.31 14.8721C107.31 9.46698 110.617 5.88488 115.739 5.88488C120.894 5.88488 124.168 9.46698 124.168 14.8721C124.168 20.2452 120.894 23.8273 115.739 23.8273ZM115.772 20.5651C118.592 20.5651 119.986 18.0384 119.986 14.8401C119.986 11.6738 118.592 9.11515 115.772 9.11515C112.886 9.11515 111.492 11.6738 111.492 14.8401C111.492 18.0384 112.886 20.5651 115.772 20.5651ZM126.714 23.4755V0.31981H130.863V13.0811H131.155L137.476 6.10875H142.307L135.499 13.5928L142.729 23.4755H137.801L132.387 16.0235L130.863 17.6226V23.4755H126.714ZM157.075 6.68445C156.88 4.70149 155.162 3.55011 152.633 3.55011C149.975 3.55011 148.354 4.82943 148.354 6.55651C148.354 8.50746 150.429 9.30704 152.374 9.75483L154.578 10.3305C158.079 11.1301 161.451 12.9531 161.451 16.983C161.451 21.0449 158.209 23.8273 152.568 23.8273C147.089 23.8273 143.653 21.2368 143.459 16.6632H147.608C147.803 19.0939 149.877 20.2772 152.536 20.2772C155.324 20.2772 157.236 18.934 157.236 16.951C157.236 15.128 155.518 14.3604 152.99 13.7207L150.331 13.0491C146.473 12.0576 144.074 10.1386 144.074 6.81237C144.074 2.71855 147.77 0 152.698 0C157.69 0 161.062 2.78252 161.127 6.68445H157.075ZM172.879 6.10875V9.2431H169.41V18.2623C169.41 19.9254 170.253 20.2772 171.291 20.2772C171.777 20.2772 172.587 20.2452 173.106 20.2133V23.5394C172.62 23.6355 171.81 23.6993 170.772 23.6993C167.66 23.6993 165.261 22.1961 165.293 18.9339V9.2431H162.764V6.10875H165.293V1.95095H169.41V6.10875H172.879ZM183.011 23.8273C177.694 23.8273 174.452 20.3413 174.452 14.9041C174.452 9.53092 177.759 5.88488 182.784 5.88488C187.096 5.88488 190.824 8.53945 190.824 14.6482V15.9276H178.537C178.586 18.886 180.352 20.629 183.043 20.629C184.859 20.629 186.091 19.8615 186.609 18.838H190.661C189.916 21.8443 187.096 23.8273 183.011 23.8273ZM178.569 13.145H186.869C186.836 10.7783 185.248 9.05118 182.849 9.05118C180.352 9.05118 178.699 10.9222 178.569 13.145ZM193.369 30V6.10875H197.421V8.95525H197.681C198.329 7.70791 199.626 5.88488 202.738 5.88488C206.791 5.88488 210 9.01919 210 14.8081C210 20.5332 206.888 23.7954 202.738 23.7954C199.691 23.7954 198.329 22.0042 197.681 20.725H197.519V30H193.369ZM197.421 14.7761C197.421 18.1664 198.913 20.4371 201.604 20.4371C204.327 20.4371 205.786 18.0704 205.786 14.7761C205.786 11.5459 204.359 9.21111 201.604 9.21111C198.913 9.21111 197.421 11.4179 197.421 14.7761Z" fill="#4931D4"/>
</svg>
