<svg width="24" height="24" viewBox="0 0 24 24" fill="none" xmlns="http://www.w3.org/2000/svg">
<g clip-path="url(#clip0_494_385)">
<path d="M16.5 3.67188C17.5153 3.67188 18.4891 4.07509 19.207 4.79297C19.9248 5.51085 20.328 6.48482 20.3281 7.5C20.328 8.51518 19.9248 9.48915 19.207 10.207L8.70703 20.707C8.51951 20.8945 8.26514 21 8 21H4C3.44782 21 3.00016 20.5521 3 20V16L3.00488 15.9014C3.02762 15.6726 3.12899 15.457 3.29297 15.293L13.793 4.79297C14.5109 4.07509 15.4847 3.67187 16.5 3.67188ZM5 16.4141V19H7.58594L16.0859 10.5L13.5 7.91406L5 16.4141ZM16.5 5.67188C16.0151 5.67188 15.5499 5.86423 15.207 6.20703L14.9141 6.5L17.5 9.08594L17.793 8.79297C18.1357 8.45016 18.328 7.98475 18.3281 7.5C18.328 7.01525 18.1357 6.54984 17.793 6.20703C17.4501 5.86423 16.9849 5.67188 16.5 5.67188Z" fill="#19191F"/>
</g>
<defs>
<clipPath id="clip0_494_385">
<rect width="24" height="24" fill="white"/>
</clipPath>
</defs>
</svg>
