<svg width="24" height="24" viewBox="0 0 24 24" fill="none" xmlns="http://www.w3.org/2000/svg">
<g clip-path="url(#clip0_494_375)">
<path d="M9.42574 3.8291C10.27 1.30905 13.9941 1.39307 14.6465 4.08105C14.6733 4.19181 14.7267 4.29524 14.8008 4.38183C14.8748 4.4683 14.968 4.53648 15.0732 4.58007C15.1784 4.62365 15.2927 4.64158 15.4062 4.63281C15.5199 4.62399 15.6302 4.58862 15.7275 4.52929L15.957 4.40234C18.3361 3.21764 20.9103 5.91044 19.4717 8.27344C19.4126 8.3706 19.377 8.48038 19.3682 8.59375C19.3594 8.70731 19.3783 8.82153 19.4219 8.92676C19.4654 9.03181 19.5328 9.12519 19.6191 9.19922C19.7055 9.27324 19.8084 9.32659 19.9189 9.35352L20.1709 9.42579C22.6909 10.2701 22.6068 13.9941 19.9189 14.6465C19.8082 14.6733 19.7048 14.7267 19.6182 14.8008C19.5317 14.8749 19.4635 14.9681 19.4199 15.0733C19.3763 15.1785 19.3584 15.2927 19.3672 15.4063C19.3738 15.4915 19.3952 15.575 19.4307 15.6524L19.4707 15.7276C20.956 18.1657 18.1657 20.9566 15.7265 19.4717C15.6294 19.4126 15.5196 19.377 15.4062 19.3682C15.2927 19.3594 15.1785 19.3783 15.0732 19.4219C14.9682 19.4654 14.8748 19.5328 14.8008 19.6192C14.7452 19.684 14.7015 19.7583 14.6718 19.8379L14.6465 19.919C13.9731 22.6936 10.0269 22.6936 9.35347 19.919C9.32664 19.8082 9.27327 19.7048 9.19918 19.6182C9.12512 19.5317 9.03189 19.4635 8.92671 19.4199C8.82149 19.3764 8.70726 19.3585 8.59371 19.3672C8.50846 19.3738 8.42493 19.3952 8.34761 19.4307L8.27242 19.4707C5.83419 20.9561 3.04328 18.1657 4.52826 15.7266L4.5683 15.6514C4.60356 15.5743 4.62518 15.4912 4.63178 15.4063C4.64057 15.2927 4.62163 15.1785 4.57807 15.0733C4.53455 14.9682 4.4671 14.8748 4.3808 14.8008C4.31597 14.7452 4.24165 14.7015 4.16205 14.6719L4.081 14.6465C1.30633 13.9731 1.30633 10.0269 4.081 9.35352C4.19176 9.32667 4.29519 9.27333 4.38178 9.19922C4.46826 9.12515 4.53643 9.03195 4.58002 8.92676C4.62362 8.82154 4.64152 8.70731 4.63276 8.59375C4.62615 8.50851 4.60472 8.42497 4.56928 8.34766L4.52924 8.27246C3.04414 5.83469 5.83259 3.0442 8.27144 4.52734H8.27242C8.69433 4.78381 9.23727 4.55808 9.35347 4.08105L9.42574 3.8291ZM12.7031 4.55273C12.5243 3.81577 11.4757 3.81577 11.2968 4.55273V4.55371C10.8743 6.29011 8.93786 7.14177 7.38276 6.32129L7.23335 6.23633C6.58453 5.84132 5.84273 6.58369 6.23725 7.23145H6.23628C6.45945 7.59749 6.5937 8.01106 6.6269 8.43848C6.66005 8.86606 6.59183 9.29618 6.42768 9.69239C6.26359 10.0884 6.00816 10.44 5.68256 10.7188C5.39737 10.9628 5.06488 11.1455 4.70697 11.2549L4.55268 11.2969C3.81571 11.4757 3.81571 12.5243 4.55268 12.7031H4.55365C4.96982 12.8044 5.35628 13.0026 5.68159 13.2813C6.00697 13.56 6.26275 13.9118 6.42671 14.3076C6.59065 14.7036 6.659 15.1333 6.62593 15.5606C6.59283 15.9878 6.4592 16.4016 6.23628 16.7676C5.84173 17.4163 6.58375 18.1572 7.2314 17.7627C7.59739 17.5396 8.01109 17.4063 8.43843 17.3731C8.86601 17.3399 9.29614 17.4081 9.69234 17.5723C10.0883 17.7364 10.44 17.9918 10.7187 18.3174C10.9975 18.6432 11.1958 19.0306 11.2968 19.4473L11.3398 19.5772C11.6032 20.1815 12.5355 20.1381 12.7031 19.4473V19.4463C12.8044 19.0301 13.0026 18.6437 13.2812 18.3184C13.56 17.993 13.9117 17.7372 14.3076 17.5733C14.7036 17.4093 15.1332 17.341 15.5605 17.374C15.9878 17.4071 16.4016 17.5408 16.7676 17.7637C17.4163 18.1581 18.157 17.4162 17.7627 16.7686V16.7676C17.5398 16.4018 17.4062 15.9886 17.373 15.5615C17.3399 15.1339 17.4081 14.7038 17.5722 14.3076C17.7363 13.9116 17.9918 13.56 18.3174 13.2813C18.6431 13.0025 19.0305 12.8041 19.4473 12.7031L19.5771 12.6602C20.1814 12.3968 20.138 11.4646 19.4473 11.2969H19.4463C19.0301 11.1956 18.6437 10.9974 18.3183 10.7188C17.993 10.44 17.7372 10.0882 17.5732 9.69239C17.4093 9.29642 17.3409 8.86675 17.374 8.43946C17.4071 8.01219 17.5407 7.59842 17.7637 7.23242C18.1582 6.5837 17.4162 5.84289 16.7685 6.2373L16.7676 6.23633C16.4016 6.45932 15.9887 6.59375 15.5615 6.62695C15.1339 6.6601 14.7038 6.59187 14.3076 6.42773C13.9116 6.26365 13.56 6.0082 13.2812 5.68262C13.0371 5.39742 12.8544 5.06493 12.7451 4.70703L12.7031 4.55273ZM12 8C14.2091 8.00004 16 9.79089 16 12C16 14.2091 14.2091 16 12 16C9.79083 16 7.99997 14.2091 7.99995 12C7.99995 9.79087 9.79082 8 12 8ZM12 10C10.8954 10 9.99996 10.8954 9.99996 12C9.99998 13.1046 10.8954 14 12 14C13.1045 14 14 13.1045 14 12C14 10.8955 13.1045 10 12 10Z" fill="#19191F"/>
</g>
<defs>
<clipPath id="clip0_494_375">
<rect width="24" height="24" fill="white"/>
</clipPath>
</defs>
</svg>
