<svg width="24" height="24" viewBox="0 0 24 24" fill="none" xmlns="http://www.w3.org/2000/svg">
<g clip-path="url(#clip0_507_1254)">
<path d="M11.9934 1.00201C12.3739 1.00214 12.7215 1.21839 12.8899 1.55963L15.7424 7.34088L22.1223 8.26569C22.4992 8.32031 22.8123 8.58414 22.9299 8.94635C23.0475 9.30848 22.9498 9.70613 22.677 9.97174L18.0539 14.4717L19.1438 20.8262C19.208 21.2015 19.0535 21.5811 18.7453 21.8047C18.4372 22.0282 18.0284 22.0574 17.6916 21.8799L11.9983 18.8799L6.2932 21.8799C5.95629 22.057 5.54838 22.0275 5.24046 21.8038C4.93261 21.5801 4.77782 21.2013 4.84202 20.8262L5.93187 14.4717L1.3098 9.97174C1.03695 9.70615 0.938366 9.30851 1.05589 8.94635C1.1735 8.58419 1.48669 8.32036 1.86351 8.26569L8.24241 7.34088L11.0959 1.55963C11.2644 1.21829 11.6127 1.00201 11.9934 1.00201ZM9.80394 8.69733C9.65822 8.99259 9.37589 9.19698 9.05003 9.2442L4.15745 9.95319L7.70433 13.4053C7.94036 13.6351 8.0481 13.9664 7.99241 14.2911L7.1555 19.1661L11.5344 16.8653L11.6467 16.8145C11.9126 16.714 12.2111 16.731 12.466 16.8653L16.8284 19.1641L15.9934 14.2911C15.9377 13.9664 16.0455 13.6351 16.2815 13.4053L19.8274 9.95319L14.9358 9.2442C14.6099 9.19698 14.3276 8.99259 14.1819 8.69733L11.9924 4.26178L9.80394 8.69733Z" fill="#19191F"/>
</g>
<defs>
<clipPath id="clip0_507_1254">
<rect width="24" height="24" fill="white"/>
</clipPath>
</defs>
</svg>
