<svg width="24" height="24" viewBox="0 0 24 24" fill="none" xmlns="http://www.w3.org/2000/svg">
<g clip-path="url(#clip0_507_1258)">
<path d="M11.9931 1.00195C12.3736 1.00208 12.7212 1.2184 12.8896 1.55957L15.7421 7.34082L22.122 8.26562C22.4989 8.32024 22.812 8.58413 22.9296 8.94629C23.0472 9.30841 22.9495 9.70606 22.6767 9.97168L18.0537 14.4717L19.1435 20.8262C19.2078 21.2014 19.0532 21.581 18.7451 21.8047C18.4369 22.0281 18.0281 22.0573 17.6914 21.8799L11.998 18.8799L6.29292 21.8799C5.95605 22.0569 5.54807 22.0274 5.24019 21.8037C4.93244 21.58 4.77756 21.2012 4.84175 20.8262L5.9316 14.4717L1.30953 9.97168C1.03678 9.70609 0.938116 9.30839 1.05562 8.94629C1.17321 8.58418 1.4865 8.32036 1.86324 8.26562L8.24214 7.34082L11.0957 1.55957C11.2641 1.21829 11.6125 1.00203 11.9931 1.00195Z" fill="#19191F"/>
</g>
<defs>
<clipPath id="clip0_507_1258">
<rect width="24" height="24" fill="white"/>
</clipPath>
</defs>
</svg>
