<svg width="44" height="8" viewBox="0 0 44 8" fill="none" xmlns="http://www.w3.org/2000/svg">
<path d="M0 4C0 1.79086 1.79086 0 4 0C6.20914 0 8 1.79086 8 4C8 6.20914 6.20914 8 4 8C1.79086 8 0 6.20914 0 4Z" fill="#D2D5FE"/>
<path d="M18 4C18 1.79086 19.7909 0 22 0C24.2091 0 26 1.79086 26 4C26 6.20914 24.2091 8 22 8C19.7909 8 18 6.20914 18 4Z" fill="#4931D4"/>
<path d="M36 4C36 1.79086 37.7909 0 40 0C42.2091 0 44 1.79086 44 4C44 6.20914 42.2091 8 40 8C37.7909 8 36 6.20914 36 4Z" fill="#D2D5FE"/>
</svg>
