<svg width="24" height="24" viewBox="0 0 24 24" fill="none" xmlns="http://www.w3.org/2000/svg">
<g clip-path="url(#clip0_494_367)">
<path d="M14 14C15.3261 14 16.5975 14.5272 17.5352 15.4648C18.4728 16.4025 19 17.6739 19 19V21C19 21.5523 18.5523 22 18 22C17.4477 22 17 21.5523 17 21V19C17 18.2044 16.6837 17.4415 16.1211 16.8789C15.6289 16.3867 14.9835 16.0829 14.2969 16.0146L14 16H10C9.20435 16 8.44152 16.3163 7.87891 16.8789C7.3163 17.4415 7 18.2044 7 19V21C7 21.5523 6.55228 22 6 22C5.44772 22 5 21.5523 5 21V19C5 17.6739 5.52716 16.4025 6.46484 15.4648C7.40253 14.5272 8.67392 14 10 14H14ZM12 2C14.7614 2 17 4.23858 17 7C17 9.76142 14.7614 12 12 12C9.23858 12 7 9.76142 7 7C7 4.23858 9.23858 2 12 2ZM12 4C10.3431 4 9 5.34315 9 7C9 8.65685 10.3431 10 12 10C13.6569 10 15 8.65685 15 7C15 5.34315 13.6569 4 12 4Z" fill="#19191F"/>
</g>
<defs>
<clipPath id="clip0_494_367">
<rect width="24" height="24" fill="white"/>
</clipPath>
</defs>
</svg>
