<svg width="24" height="24" viewBox="0 0 24 24" fill="none" xmlns="http://www.w3.org/2000/svg">
<g clip-path="url(#clip0_500_642)">
<path d="M17.2929 5.29296C17.6835 4.90243 18.3165 4.90243 18.707 5.29296C19.0974 5.68349 19.0975 6.31652 18.707 6.70702L13.414 12L18.707 17.293C19.0974 17.6835 19.0975 18.3166 18.707 18.7071C18.3165 19.0976 17.6835 19.0975 17.2929 18.7071L11.9999 13.4141L6.70696 18.7071C6.31646 19.0976 5.68343 19.0975 5.29289 18.7071C4.90237 18.3165 4.90237 17.6835 5.29289 17.293L10.5859 12L5.29289 6.70702C4.90237 6.3165 4.90237 5.68348 5.29289 5.29296C5.68342 4.90243 6.31643 4.90243 6.70696 5.29296L11.9999 10.5859L17.2929 5.29296Z" fill="currentColor"/>
</g>
<defs>
<clipPath id="clip0_500_642">
<rect width="24" height="24" fill="white"/>
</clipPath>
</defs>
</svg>
