<svg width="56" height="56" viewBox="0 0 56 56" fill="none" xmlns="http://www.w3.org/2000/svg">
<g clip-path="url(#clip0_515_6916)">
<path d="M46.439 0H9.56098C4.28059 0 0 4.28059 0 9.56098V46.439C0 51.7194 4.28059 56 9.56098 56H46.439C51.7194 56 56 51.7194 56 46.439V9.56098C56 4.28059 51.7194 0 46.439 0Z" fill="#4931D4"/>
<path d="M41.1374 13.3171C41.991 13.3171 42.683 14.0375 42.683 14.9262V41.0738C42.683 41.9624 41.991 42.6829 41.1374 42.6829H14.8627C14.0091 42.6829 13.3171 41.9624 13.3171 41.0738V32.6261C13.3172 31.7375 14.0091 31.017 14.8627 31.017H21.4313V23.7763C21.4313 22.8876 22.1233 22.1671 22.977 22.1671H29.9319V14.9262C29.9319 14.0375 30.624 13.3171 31.4775 13.3171H41.1374Z" fill="#BBEF80"/>
</g>
<defs>
<clipPath id="clip0_515_6916">
<rect width="56" height="56" fill="white"/>
</clipPath>
</defs>
</svg>
